HIERARCHY
ROOT hip
{
  OFFSET 5.51535 103.731 -2.80141
  CHANNELS 6 Xposition Yposition Zposition Zrotation Xrotation Yrotation
  JOINT abdomen
  {
    OFFSET 0 -1.186 -1.5018
    CHANNELS 6 Xposition Yposition Zposition Zrotation Xrotation Yrotation
    JOINT abdomen2
    {
      OFFSET 0 9.964 0.2134
      CHANNELS 6 Xposition Yposition Zposition Zrotation Xrotation Yrotation
      JOINT chest
      {
        OFFSET 0 13.134 -3.2573
        CHANNELS 6 Xposition Yposition Zposition Zrotation Xrotation Yrotation
        JOINT neck
        {
          OFFSET 0 20.686 -1.6905
          CHANNELS 6 Xposition Yposition Zposition Zrotation Xrotation Yrotation
          JOINT head
          {
            OFFSET 0 7.23801 -0.1237
            CHANNELS 6 Xposition Yposition Zposition Zrotation Xrotation Yrotation
            End Site
            {
              OFFSET 0 0 0
            }
          }
        }
        JOINT lCollar
        {
          OFFSET 1.7069 20.075 5.0056
          CHANNELS 6 Xposition Yposition Zposition Zrotation Xrotation Yrotation
          JOINT lShldr
          {
            OFFSET 13.6458 -0.0470195 -4.849
            CHANNELS 6 Xposition Yposition Zposition Zrotation Xrotation Yrotation
            JOINT lForeArm
            {
              OFFSET 28.3255 -0.97589 2.2888
              CHANNELS 6 Xposition Yposition Zposition Zrotation Xrotation Yrotation
              JOINT lHand
              {
                OFFSET 22.1583 -0.529998 10.8316
                CHANNELS 6 Xposition Yposition Zposition Zrotation Xrotation Yrotation
                JOINT lThumb1
                {
                  OFFSET 0.786 0.111997 2.5817
                  CHANNELS 6 Xposition Yposition Zposition Zrotation Xrotation Yrotation
                  JOINT lThumb2
                  {
                    OFFSET 0.360097 -0.877999 4.2331
                    CHANNELS 6 Xposition Yposition Zposition Zrotation Xrotation Yrotation
                    JOINT lThumb2_End
                    {
                      OFFSET 1.8127 -1.21601 2.2227
                      CHANNELS 6 Xposition Yposition Zposition Zrotation Xrotation Yrotation
                      End Site
                      {
                        OFFSET 0.0180981 -0.012195 0.0222007
                      }
                    }
                  }
                }
                JOINT lCarpal1
                {
                  OFFSET 0.9571 1.114 1.7695
                  CHANNELS 6 Xposition Yposition Zposition Zrotation Xrotation Yrotation
                  JOINT lIndex1
                  {
                    OFFSET 4.12461 0.486992 4.1451
                    CHANNELS 6 Xposition Yposition Zposition Zrotation Xrotation Yrotation
                    JOINT lIndex2
                    {
                      OFFSET 3.4052 -1.45401 2.7682
                      CHANNELS 6 Xposition Yposition Zposition Zrotation Xrotation Yrotation
                      JOINT lIndex2_End
                      {
                        OFFSET 1.45309 -1.79499 1.2713
                        CHANNELS 6 Xposition Yposition Zposition Zrotation Xrotation Yrotation
                        End Site
                        {
                          OFFSET 0.0144979 -0.0179083 0.0126995
                        }
                      }
                    }
                  }
                  JOINT lMid1
                  {
                    OFFSET 5.6954 0.209987 2.1184
                    CHANNELS 6 Xposition Yposition Zposition Zrotation Xrotation Yrotation
                    JOINT lMid2
                    {
                      OFFSET 3.9766 -1.53999 2.3863
                      CHANNELS 6 Xposition Yposition Zposition Zrotation Xrotation Yrotation
                      JOINT lMid2_End
                      {
                        OFFSET 1.4042 -1.926 1.125
                        CHANNELS 6 Xposition Yposition Zposition Zrotation Xrotation Yrotation
                        End Site
                        {
                          OFFSET 0.013999 -0.0193044 0.011301
                        }
                      }
                    }
                  }
                }
                JOINT lCarpal2
                {
                  OFFSET 2.0956 0.66 -0.3894
                  CHANNELS 6 Xposition Yposition Zposition Zrotation Xrotation Yrotation
                  JOINT lRing1
                  {
                    OFFSET 5.0395 -0.090013 2.4971
                    CHANNELS 6 Xposition Yposition Zposition Zrotation Xrotation Yrotation
                    JOINT lRing2
                    {
                      OFFSET 3.7921 -1.55199 1.4806
                      CHANNELS 6 Xposition Yposition Zposition Zrotation Xrotation Yrotation
                      JOINT lRing2_End
                      {
                        OFFSET 1.4655 -1.808 0.9609
                        CHANNELS 6 Xposition Yposition Zposition Zrotation Xrotation Yrotation
                        End Site
                        {
                          OFFSET 0.0147015 -0.0181014 0.00959957
                        }
                      }
                    }
                  }
                  JOINT lPinky1
                  {
                    OFFSET 4.9141 -1.269 0.3591
                    CHANNELS 6 Xposition Yposition Zposition Zrotation Xrotation Yrotation
                    JOINT lPinky2
                    {
                      OFFSET 3.1477 -1.685 0.8462
                      CHANNELS 6 Xposition Yposition Zposition Zrotation Xrotation Yrotation
                      JOINT lPinky2_End
                      {
                        OFFSET 0.805498 -1.58501 0.795499
                        CHANNELS 6 Xposition Yposition Zposition Zrotation Xrotation Yrotation
                        End Site
                        {
                          OFFSET 0.00809703 -0.0157944 0.00799848
                        }
                      }
                    }
                  }
                }
              }
            }
          }
        }
        JOINT rCollar
        {
          OFFSET -1.7069 20.075 5.0056
          CHANNELS 6 Xposition Yposition Zposition Zrotation Xrotation Yrotation
          JOINT rShldr
          {
            OFFSET -13.6458 -0.0470107 -4.849
            CHANNELS 6 Xposition Yposition Zposition Zrotation Xrotation Yrotation
            JOINT rForeArm
            {
              OFFSET -28.3255 -0.975895 2.2888
              CHANNELS 6 Xposition Yposition Zposition Zrotation Xrotation Yrotation
              JOINT rHand
              {
                OFFSET -22.1583 -0.530007 10.8316
                CHANNELS 6 Xposition Yposition Zposition Zrotation Xrotation Yrotation
                JOINT rThumb1
                {
                  OFFSET -0.785997 0.112005 2.5817
                  CHANNELS 6 Xposition Yposition Zposition Zrotation Xrotation Yrotation
                  JOINT rThumb2
                  {
                    OFFSET -0.360106 -0.877994 4.2331
                    CHANNELS 6 Xposition Yposition Zposition Zrotation Xrotation Yrotation
                    JOINT rThumb2_End
                    {
                      OFFSET -1.8127 -1.216 2.2227
                      CHANNELS 6 Xposition Yposition Zposition Zrotation Xrotation Yrotation
                      End Site
                      {
                        OFFSET -0.0180972 -0.0121973 0.0222005
                      }
                    }
                  }
                }
                JOINT rCarpal1
                {
                  OFFSET -0.9571 1.114 1.7695
                  CHANNELS 6 Xposition Yposition Zposition Zrotation Xrotation Yrotation
                  JOINT rIndex1
                  {
                    OFFSET -4.1246 0.487011 4.1451
                    CHANNELS 6 Xposition Yposition Zposition Zrotation Xrotation Yrotation
                    JOINT rIndex2
                    {
                      OFFSET -3.4052 -1.45401 2.7682
                      CHANNELS 6 Xposition Yposition Zposition Zrotation Xrotation Yrotation
                      JOINT rIndex2_End
                      {
                        OFFSET -1.4531 -1.795 1.2713
                        CHANNELS 6 Xposition Yposition Zposition Zrotation Xrotation Yrotation
                        End Site
                        {
                          OFFSET -0.0145077 -0.0180048 0.0127017
                        }
                      }
                    }
                  }
                  JOINT rMid1
                  {
                    OFFSET -5.6954 0.210002 2.1184
                    CHANNELS 6 Xposition Yposition Zposition Zrotation Xrotation Yrotation
                    JOINT rMid2
                    {
                      OFFSET -3.9766 -1.54 2.3863
                      CHANNELS 6 Xposition Yposition Zposition Zrotation Xrotation Yrotation
                      JOINT rMid2_End
                      {
                        OFFSET -1.4042 -1.926 1.125
                        CHANNELS 6 Xposition Yposition Zposition Zrotation Xrotation Yrotation
                        End Site
                        {
                          OFFSET -0.0139948 -0.0192916 0.0112994
                        }
                      }
                    }
                  }
                }
                JOINT rCarpal2
                {
                  OFFSET -2.0956 0.66 -0.3894
                  CHANNELS 6 Xposition Yposition Zposition Zrotation Xrotation Yrotation
                  JOINT rRing1
                  {
                    OFFSET -5.03951 -0.0899879 2.4971
                    CHANNELS 6 Xposition Yposition Zposition Zrotation Xrotation Yrotation
                    JOINT rRing2
                    {
                      OFFSET -3.7921 -1.55201 1.4806
                      CHANNELS 6 Xposition Yposition Zposition Zrotation Xrotation Yrotation
                      JOINT rRing2_End
                      {
                        OFFSET -1.4655 -1.808 0.960901
                        CHANNELS 6 Xposition Yposition Zposition Zrotation Xrotation Yrotation
                        End Site
                        {
                          OFFSET -0.0146934 -0.0180999 0.00959832
                        }
                      }
                    }
                  }
                  JOINT rPinky1
                  {
                    OFFSET -4.91411 -1.26899 0.359202
                    CHANNELS 6 Xposition Yposition Zposition Zrotation Xrotation Yrotation
                    JOINT rPinky2
                    {
                      OFFSET -3.14769 -1.68501 0.846199
                      CHANNELS 6 Xposition Yposition Zposition Zrotation Xrotation Yrotation
                      JOINT rPinky2_End
                      {
                        OFFSET -0.805498 -1.585 0.7955
                        CHANNELS 6 Xposition Yposition Zposition Zrotation Xrotation Yrotation
                        End Site
                        {
                          OFFSET -0.00810035 -0.0158035 0.00800029
                        }
                      }
                    }
                  }
                }
              }
            }
          }
        }
      }
    }
  }
  JOINT lThigh
  {
    OFFSET 8.367 -8.2066 0.5982
    CHANNELS 6 Xposition Yposition Zposition Zrotation Xrotation Yrotation
    JOINT lShin
    {
      OFFSET 2.1923 -43.463 -0.4932
      CHANNELS 6 Xposition Yposition Zposition Zrotation Xrotation Yrotation
      JOINT lFoot
      {
        OFFSET 0.733301 -45.8593 -2.6451
        CHANNELS 6 Xposition Yposition Zposition Zrotation Xrotation Yrotation
        End Site
        {
          OFFSET 2.6618 -4.2699 12.3931
        }
      }
    }
  }
  JOINT rThigh
  {
    OFFSET -8.367 -8.2066 0.5982
    CHANNELS 6 Xposition Yposition Zposition Zrotation Xrotation Yrotation
    JOINT rShin
    {
      OFFSET -2.1923 -43.463 -0.4931
      CHANNELS 6 Xposition Yposition Zposition Zrotation Xrotation Yrotation
      JOINT rFoot
      {
        OFFSET -0.733299 -45.8593 -2.6451
        CHANNELS 6 Xposition Yposition Zposition Zrotation Xrotation Yrotation
        End Site
        {
          OFFSET -2.6618 -4.2699 12.3931
        }
      }
    }
  }
}
MOTION
Frames:	4
Frame Time:	0.0333333
15.7865 132.105 -2.40975 -174.305 -70.7669 166.106 -1.32506e-007 -1.18599 -1.5018 4.73912 9.63332 -1.18862 -1.61638e-006 9.964 0.213395 9.89525 19.1292 -3.26353 1.49489e-007 13.134 -3.2573 9.89525 19.1292 -3.26354 -2.69925e-005 20.6862 -1.69055 -1.971 -7.8359 -48.9039 -9.27464e-006 7.23802 -0.123706 13.3154 3.48523 -33.4539 1.7069 20.075 5.00561 7.1988 -2.30713 -22.6188 13.6458 -0.0470106 -4.849 -43.0314 4.91539 -41.2339 28.3255 -0.97588 2.2888 -13.5626 -34.3108 -37.3631 22.1583 -0.529987 10.8316 -126.725 -71.6721 -75.7641 0.786004 0.111997 2.58171 29.0018 36.8211 -34.7962 0.360094 -0.878002 4.23309 -6.33708 -0.117459 -11.5742 1.8127 -1.21601 2.2227 6.48485 1.48411 12.0601 0.9571 1.114 1.7695 6.36111e-015 1.59028e-015 -1.39149e-015 4.1246 0.486993 4.1451 -4.88731 4.53868 12.6178 3.4052 -1.454 2.76819 -36.3635 10.0329 17.8993 1.4531 -1.79499 1.27129 -37.4308 10.1388 18.4809 5.6954 0.209987 2.11841 -1.58701 -0.577002 1.61798 3.9766 -1.53999 2.38629 -43.8283 12.176 22.7531 1.4042 -1.926 1.125 -9.03166 4.06855 4.02211 2.0956 0.66 -0.3894 6.36111e-015 1.59028e-015 -1.39149e-015 5.0395 -0.0900128 2.4971 -8.44089 -1.94813 5.79523 3.7921 -1.55199 1.48061 -14.2679 6.48276 7.41471 1.4655 -1.808 0.960906 -15.7293 7.01831 8.23428 4.9141 -1.269 0.359105 10.4038 -12.5937 2.33179 3.1477 -1.685 0.846202 -18.2185 8.51738 9.60866 0.805498 -1.58501 0.795501 -8.80545 4.59366 4.39818 -1.7069 20.075 5.0056 -8.09295 -1.10472 4.11532 -13.6458 -0.0470082 -4.849 34.6792 20.8409 58.2121 -28.3255 -0.975887 2.28879 26.025 -28.359 50.2999 -22.1583 -0.529998 10.8316 11.3379 -47.21 -28.2725 -0.785997 0.112006 2.5817 -29.9218 33.5002 36.3093 -0.360108 -0.877992 4.2331 3.27634 -2.39824 9.40455 -1.8127 -1.216 2.2227 -4.44362 5.02821 -15.268 -0.9571 1.114 1.7695 3.18055e-015 2.38542e-015 -1.98785e-015 -4.12461 0.487012 4.14511 13.181 6.35511 -12.1375 -3.4052 -1.45401 2.7682 44.351 10.8049 -10.7983 -1.4531 -1.795 1.2713 45.4781 10.9508 -11.1601 -5.6954 0.210002 2.1184 23.4455 6.26242 -5.46415 -3.9766 -1.54 2.3863 52.3089 13.53 -14.1043 -1.4042 -1.92599 1.12501 15.1721 5.32233 -2.7876 -2.0956 0.66 -0.3894 3.18055e-015 2.38542e-015 -1.98785e-015 -5.03951 -0.0899864 2.4971 27.3701 -4.07966 -16.9312 -3.7921 -1.55201 1.4806 34.282 11.2562 -9.66334 -1.4655 -1.80801 0.960894 35.9294 11.6178 -10.2649 -4.91411 -1.26899 0.359206 42.8785 -6.59625 -15.1945 -3.1477 -1.68501 0.846204 33.3642 12.0774 -9.21039 -0.805499 -1.58499 0.795506 5.19074 2.26524 -0.970966 8.36701 -8.2066 0.598189 106.484 -44.6341 103.813 2.19231 -43.463 -0.493204 0.230348 -2.61551 0.343172 0.733299 -45.8593 -2.64511 -1.94378 13.159 -4.14443 -8.36702 -8.2066 0.598198 -69.1865 -19.7065 -62.7211 -2.19232 -43.463 -0.493094 -0.823978 -2.5345 1.17888 -0.733336 -45.8593 -2.6451 4.6378 13.6833 -3.64845 
15.3851 130.795 -0.593804 -153.46 -72.5302 -171.501 -1.49075e-006 -1.18599 -1.5018 4.81439 9.25186 -1.03608 -1.01119e-006 9.964 0.213398 9.99743 18.379 -2.92485 -1.58719e-006 13.134 -3.2573 9.99742 18.3791 -2.92486 -1.70508e-006 20.686 -1.69051 -1.99065 -8.75376 -49.4342 -1.11101e-006 7.23802 -0.1237 13.5992 4.02059 -33.4573 1.7069 20.075 5.00559 7.41343 -2.33027 -22.7828 13.6458 -0.047008 -4.849 -42.4963 4.86582 -40.6008 28.3255 -0.975888 2.2888 -14.4256 -34.8999 -41.069 22.1583 -0.529979 10.8316 -125.569 -74.1696 -75.3908 0.786004 0.111996 2.58171 29.0018 36.8211 -34.7962 0.360099 -0.877998 4.2331 -6.33712 -0.117494 -11.5742 1.8127 -1.21601 2.2227 6.48486 1.48409 12.0601 0.9571 1.114 1.7695 6.36111e-015 3.97569e-016 7.95139e-016 4.1246 0.486993 4.1451 -4.88732 4.53865 12.6178 3.4052 -1.454 2.7682 -36.3636 10.0329 17.8993 1.4531 -1.79499 1.2713 -37.4308 10.1387 18.4808 5.6954 0.209988 2.11839 -1.58701 -0.576997 1.61798 3.9766 -1.53999 2.3863 -43.8284 12.1759 22.7531 1.4042 -1.926 1.125 -9.03167 4.06847 4.02217 2.0956 0.66 -0.3894 6.36111e-015 3.97569e-016 7.95139e-016 5.0395 -0.0900121 2.49709 -8.44092 -1.94817 5.79523 3.7921 -1.55199 1.4806 -14.2679 6.48275 7.41471 1.4655 -1.808 0.960895 -15.7293 7.01827 8.2343 4.9141 -1.269 0.359105 10.4037 -12.5938 2.3318 3.1477 -1.685 0.846198 -18.2185 8.51736 9.60867 0.805498 -1.58501 0.795506 -8.80546 4.59365 4.39819 -1.7069 20.075 5.00561 -8.18575 -1.10559 3.63539 -13.6458 -0.0470083 -4.849 34.117 21.3448 57.8924 -28.3255 -0.975877 2.28881 25.9569 -28.194 52.624 -22.1583 -0.530006 10.8316 12.8617 -49.1007 -26.793 -0.786003 0.112004 2.5817 -29.9218 33.5003 36.3093 -0.360107 -0.877993 4.2331 3.27633 -2.39823 9.40456 -1.81269 -1.216 2.2227 -4.44363 5.02821 -15.268 -0.9571 1.114 1.7695 3.18055e-015 -4.77083e-015 1.11319e-014 -4.1246 0.487012 4.1451 13.181 6.35515 -12.1376 -3.4052 -1.45401 2.76819 44.351 10.8049 -10.7983 -1.4531 -1.795 1.27129 45.4781 10.9508 -11.1601 -5.69541 0.210002 2.11841 23.4455 6.26251 -5.4642 -3.9766 -1.54 2.3863 52.3089 13.53 -14.1043 -1.4042 -1.926 1.125 15.1721 5.32235 -2.7876 -2.0956 0.66 -0.3894 3.18055e-015 -4.77083e-015 1.11319e-014 -5.03951 -0.0899874 2.4971 27.3701 -4.07965 -16.9312 -3.7921 -1.55201 1.4806 34.282 11.2562 -9.66334 -1.4655 -1.808 0.960899 35.9294 11.6178 -10.2649 -4.91411 -1.26899 0.359201 42.8785 -6.5962 -15.1946 -3.1477 -1.68501 0.846199 33.3642 12.0774 -9.21038 -0.8055 -1.585 0.795498 5.19074 2.26527 -0.970962 8.36701 -8.2066 0.598198 105.569 -47.4981 102.143 2.19231 -43.463 -0.493191 0.243804 -2.65494 0.332258 0.7333 -45.8593 -2.64509 -2.50573 14.3163 -4.72251 -8.36702 -8.20661 0.59821 -67.6053 -19.3515 -58.873 -2.19251 -43.463 -0.493106 0.387836 1.38569 1.00367 -0.733314 -45.8593 -2.6451 4.82278 15.426 -1.99428 
14.7587 129.243 1.12301 -130.789 -71.442 -147.57 2.52532e-006 -1.186 -1.5018 4.90372 8.93128 -0.930542 -2.45055e-007 9.964 0.2134 10.1421 17.7461 -2.69077 1.22637e-006 13.134 -3.2573 10.1421 17.7461 -2.69078 8.71213e-006 20.686 -1.69048 -1.9897 -9.64236 -49.4057 -4.28225e-006 7.23802 -0.123711 13.5146 4.36283 -33.4081 1.7069 20.075 5.00561 7.81995 -2.34745 -22.7489 13.6458 -0.0470097 -4.84901 -41.6674 4.50672 -40.0824 28.3255 -0.975885 2.2888 -15.4415 -35.2897 -44.9255 22.1583 -0.529989 10.8316 -124.849 -77.2372 -75.6278 0.786004 0.111997 2.5817 29.0017 36.8211 -34.7962 0.360096 -0.878 4.2331 -6.33703 -0.117395 -11.5742 1.81269 -1.21602 2.2227 6.48484 1.48408 12.0601 0.9571 1.114 1.7695 -0 -1.19271e-015 -0 4.1246 0.486992 4.1451 -4.88732 4.53865 12.6178 3.4052 -1.454 2.7682 -36.3635 10.0329 17.8992 1.4531 -1.79499 1.2713 -37.4308 10.1386 18.4808 5.6954 0.209988 2.1184 -1.58701 -0.577009 1.61798 3.9766 -1.53999 2.38629 -43.8283 12.1761 22.7531 1.4042 -1.926 1.125 -9.03164 4.06864 4.02206 2.0956 0.66 -0.3894 -0 -1.19271e-015 -0 5.0395 -0.090012 2.49709 -8.44097 -1.94824 5.7952 3.7921 -1.55199 1.48059 -14.2679 6.48266 7.41474 1.4655 -1.808 0.960895 -15.7293 7.01822 8.23434 4.9141 -1.269 0.359105 10.4038 -12.5936 2.33178 3.1477 -1.685 0.846195 -18.2186 8.51726 9.60871 0.805498 -1.58501 0.7955 -8.80545 4.59365 4.39819 -1.7069 20.075 5.00561 -8.13142 -1.09489 3.29735 -13.6458 -0.047009 -4.849 34.021 21.4188 57.6218 -28.3255 -0.975877 2.28881 25.9075 -27.7713 54.7181 -22.1583 -0.529996 10.8316 14.433 -50.5935 -25.3105 -0.785999 0.112006 2.5817 -29.9217 33.5002 36.3092 -0.360109 -0.877992 4.2331 3.2763 -2.39822 9.40456 -1.8127 -1.216 2.2227 -4.44364 5.02823 -15.268 -0.9571 1.114 1.7695 -3.18055e-015 0 1.59028e-015 -4.1246 0.487012 4.1451 13.181 6.35505 -12.1375 -3.4052 -1.45401 2.7682 44.351 10.8049 -10.7983 -1.4531 -1.795 1.2713 45.4781 10.9509 -11.1601 -5.6954 0.210003 2.1184 23.4456 6.26232 -5.46412 -3.9766 -1.54 2.3863 52.3089 13.53 -14.1043 -1.4042 -1.926 1.12499 15.1721 5.32237 -2.7876 -2.0956 0.66 -0.3894 -3.18055e-015 0 1.59028e-015 -5.03951 -0.0899875 2.49711 27.3701 -4.07964 -16.9312 -3.7921 -1.55201 1.48061 34.282 11.2562 -9.66333 -1.4655 -1.808 0.960904 35.9295 11.6178 -10.2649 -4.91411 -1.26899 0.359208 42.8785 -6.59635 -15.1945 -3.1477 -1.68501 0.846197 33.3642 12.0774 -9.21039 -0.805499 -1.58499 0.795506 5.19075 2.2653 -0.970934 8.36701 -8.2066 0.598202 104.634 -50.6188 101.432 2.19231 -43.463 -0.493198 0.220578 -2.56894 0.294819 0.733302 -45.8593 -2.6451 -2.90091 16.014 -6.08782 -8.36701 -8.2066 0.5982 -65.1814 -18.723 -53.2671 -2.19223 -43.463 -0.493089 1.78424 4.56506 0.572827 -0.733322 -45.8593 -2.6451 5.94685 17.3339 -1.60921 
13.6091 127.467 2.74937 -112.777 -67.5597 -128.673 1.34236e-007 -1.186 -1.5018 5.03569 8.62632 -0.884174 -1.43458e-006 9.96399 0.213396 10.3849 17.1377 -2.58508 3.23493e-007 13.134 -3.2573 10.3849 17.1377 -2.58509 2.67917e-006 20.686 -1.69049 -1.98521 -9.97592 -49.2824 6.48578e-006 7.23802 -0.123715 13.5231 4.39397 -33.3927 1.7069 20.075 5.00561 7.67891 -2.36835 -23.1138 13.6458 -0.0470148 -4.84901 -40.77 4.09439 -38.9363 28.3255 -0.975892 2.2888 -16.7725 -36.0429 -49.4753 22.1583 -0.529987 10.8316 -121.069 -81.5047 -72.7819 0.786004 0.111998 2.5817 29.0017 36.8211 -34.7962 0.3601 -0.877996 4.2331 -6.33704 -0.117394 -11.5742 1.8127 -1.21601 2.2227 6.48481 1.48403 12.0601 0.9571 1.114 1.7695 5.51738e-033 -7.95139e-016 3.97569e-016 4.1246 0.486994 4.14511 -4.88734 4.53863 12.6178 3.4052 -1.454 2.76821 -36.3635 10.0329 17.8992 1.4531 -1.79499 1.2713 -37.4307 10.1388 18.4809 5.6954 0.209989 2.1184 -1.58701 -0.576994 1.61797 3.9766 -1.53999 2.3863 -43.8283 12.1761 22.7531 1.4042 -1.926 1.125 -9.03164 4.06864 4.02206 2.0956 0.66 -0.3894 5.51738e-033 -7.95139e-016 3.97569e-016 5.0395 -0.0900114 2.4971 -8.44087 -1.9481 5.79525 3.7921 -1.55199 1.4806 -14.2679 6.48259 7.41477 1.4655 -1.808 0.960898 -15.7293 7.01834 8.23424 4.9141 -1.269 0.359104 10.4038 -12.5936 2.33179 3.1477 -1.68501 0.846206 -18.2185 8.51741 9.60865 0.805498 -1.58501 0.795499 -8.80545 4.59365 4.39821 -1.7069 20.075 5.00559 -8.25519 -1.10029 2.93641 -13.6458 -0.047014 -4.84901 34.0159 21.5512 57.6503 -28.3255 -0.97588 2.2888 26.1477 -27.4298 56.4372 -22.1583 -0.530003 10.8316 16.34 -51.7005 -23.4019 -0.786004 0.112004 2.58171 -29.9217 33.5002 36.3092 -0.360105 -0.877993 4.2331 3.27628 -2.3982 9.40458 -1.8127 -1.216 2.2227 -4.44365 5.02823 -15.2679 -0.9571 1.114 1.7695 -3.18055e-015 3.18055e-015 1.59028e-015 -4.12461 0.487012 4.14511 13.181 6.35505 -12.1375 -3.4052 -1.45401 2.7682 44.351 10.8049 -10.7983 -1.4531 -1.795 1.27129 45.4781 10.9509 -11.1601 -5.69541 0.210003 2.1184 23.4456 6.26232 -5.46412 -3.9766 -1.54 2.3863 52.3088 13.53 -14.1043 -1.4042 -1.926 1.125 15.1721 5.32241 -2.78756 -2.0956 0.66 -0.3894 -3.18055e-015 3.18055e-015 1.59028e-015 -5.03951 -0.0899872 2.49711 27.37 -4.07958 -16.9313 -3.7921 -1.55201 1.4806 34.282 11.2562 -9.66333 -1.4655 -1.808 0.960908 35.9294 11.6178 -10.2649 -4.9141 -1.26899 0.359199 42.8785 -6.59634 -15.1945 -3.1477 -1.68501 0.846198 33.3642 12.0774 -9.21038 -0.8055 -1.58499 0.795505 5.19071 2.26535 -0.970868 8.36701 -8.2066 0.598195 102.549 -53.6147 99.5963 2.19231 -43.463 -0.493203 0.129158 -2.56919 0.223036 0.733304 -45.8593 -2.6451 -2.26375 18.3753 -8.81645 -8.36701 -8.2066 0.598199 -64.1918 -19.8429 -48.0655 -2.19232 -43.463 -0.493102 3.24237 12.6494 -0.123134 -0.733328 -45.8593 -2.64511 6.96434 17.4648 -1.85818 
